<svg id="visual" viewBox="0 0 400 400" width="400" height="400" xmlns="http://www.w3.org/2000/svg" xmlns:xlink="http://www.w3.org/1999/xlink" version="1.1">
  <defs>
    <linearGradient id="grad1_0" x1="0%" y1="0%" x2="100%" y2="100%">
      <stop offset="30%" stop-color="#fde3e3" stop-opacity="1"></stop>
      <stop offset="70%" stop-color="#fde3e3" stop-opacity="1"></stop>
    </linearGradient>
  </defs>
  <defs>
    <linearGradient id="grad1_1" x1="0%" y1="0%" x2="100%" y2="100%">
      <stop offset="30%" stop-color="#fde3e3" stop-opacity="1"></stop>
      <stop offset="70%" stop-color="#fcefee" stop-opacity="1"></stop>
    </linearGradient>
  </defs>
  <defs>
    <linearGradient id="grad1_2" x1="0%" y1="0%" x2="100%" y2="100%">
      <stop offset="30%" stop-color="#fafafa" stop-opacity="1"></stop>
      <stop offset="70%" stop-color="#fcefee" stop-opacity="1"></stop>
    </linearGradient>
  </defs>
  <defs>
    <linearGradient id="grad2_0" x1="0%" y1="0%" x2="100%" y2="100%">
      <stop offset="30%" stop-color="#fde3e3" stop-opacity="1"></stop>
      <stop offset="70%" stop-color="#fde3e3" stop-opacity="1"></stop>
    </linearGradient>
  </defs>
  <defs>
    <linearGradient id="grad2_1" x1="0%" y1="0%" x2="100%" y2="100%">
      <stop offset="30%" stop-color="#fcefee" stop-opacity="1"></stop>
      <stop offset="70%" stop-color="#fde3e3" stop-opacity="1"></stop>
    </linearGradient>
  </defs>
  <defs>
    <linearGradient id="grad2_2" x1="0%" y1="0%" x2="100%" y2="100%">
      <stop offset="30%" stop-color="#fcefee" stop-opacity="1"></stop>
      <stop offset="70%" stop-color="#fafafa" stop-opacity="1"></stop>
    </linearGradient>
  </defs>

  <g transform="translate(0, 400)">
    <path
      d="M0 -320C30.1 -322.2 60.3 -324.4 82.8 -309.1C105.4 -293.7 120.3 -260.8 139.5 -241.6C158.7 -222.4 182.3 -216.9 204.4 -204.4C226.4 -191.8 247 -172.1 258.9 -149.5C270.9 -126.9 274.3 -101.2 283 -75.8C291.8 -50.4 305.9 -25.2 320 0L0 0Z"
      fill="#fbf4f4"></path>
    <path
      d="M0 -213.3C20.1 -214.8 40.2 -216.3 55.2 -206.1C70.2 -195.8 80.2 -173.9 93 -161.1C105.8 -148.3 121.5 -144.6 136.2 -136.2C150.9 -127.9 164.7 -114.8 172.6 -99.7C180.6 -84.6 182.8 -67.5 188.7 -50.6C194.5 -33.6 203.9 -16.8 213.3 0L0 0Z"
      fill="#fce9e9"></path>
    <path d="M0 -106.7C10 -107.4 20.1 -108.1 27.6 -103C35.1 -97.9 40.1 -86.9 46.5 -80.5C52.9 -74.1 60.8 -72.3 68.1 -68.1C75.5 -63.9 82.3 -57.4 86.3 -49.8C90.3 -42.3 91.4 -33.7 94.3 -25.3C97.3 -16.8 102 -8.4 106.7 0L0 0Z" fill="#fde3e3"></path>
  </g>
</svg>
