<svg id="visual" viewBox="0 0 400 400" width="400" height="400" xmlns="http://www.w3.org/2000/svg" xmlns:xlink="http://www.w3.org/1999/xlink" version="1.1">
  <defs>
    <linearGradient id="grad1_0" x1="0%" y1="0%" x2="100%" y2="100%">
      <stop offset="30%" stop-color="#fde3e3" stop-opacity="1"></stop>
      <stop offset="70%" stop-color="#fde3e3" stop-opacity="1"></stop>
    </linearGradient>
  </defs>
  <defs>
    <linearGradient id="grad1_1" x1="0%" y1="0%" x2="100%" y2="100%">
      <stop offset="30%" stop-color="#fde3e3" stop-opacity="1"></stop>
      <stop offset="70%" stop-color="#fcefee" stop-opacity="1"></stop>
    </linearGradient>
  </defs>
  <defs>
    <linearGradient id="grad1_2" x1="0%" y1="0%" x2="100%" y2="100%">
      <stop offset="30%" stop-color="#fafafa" stop-opacity="1"></stop>
      <stop offset="70%" stop-color="#fcefee" stop-opacity="1"></stop>
    </linearGradient>
  </defs>
  <defs>
    <linearGradient id="grad2_0" x1="0%" y1="0%" x2="100%" y2="100%">
      <stop offset="30%" stop-color="#fde3e3" stop-opacity="1"></stop>
      <stop offset="70%" stop-color="#fde3e3" stop-opacity="1"></stop>
    </linearGradient>
  </defs>
  <defs>
    <linearGradient id="grad2_1" x1="0%" y1="0%" x2="100%" y2="100%">
      <stop offset="30%" stop-color="#fcefee" stop-opacity="1"></stop>
      <stop offset="70%" stop-color="#fde3e3" stop-opacity="1"></stop>
    </linearGradient>
  </defs>
  <defs>
    <linearGradient id="grad2_2" x1="0%" y1="0%" x2="100%" y2="100%">
      <stop offset="30%" stop-color="#fcefee" stop-opacity="1"></stop>
      <stop offset="70%" stop-color="#fafafa" stop-opacity="1"></stop>
    </linearGradient>
  </defs>
  <g transform="translate(400, 0)">
    <path
      d="M0 320C-30.4 321.9 -60.8 323.7 -82.8 309.1C-104.9 294.5 -118.6 263.4 -144.5 250.3C-170.4 237.2 -208.4 242 -225.6 225.6C-242.7 209.1 -239 171.3 -251.1 145C-263.2 118.7 -291.1 104 -305.2 81.8C-319.3 59.5 -319.7 29.8 -320 0L0 0Z"
      fill="#fbf4f4"></path>
    <path
      d="M0 213.3C-20.3 214.6 -40.5 215.8 -55.2 206.1C-69.9 196.3 -79.1 175.6 -96.3 166.9C-113.6 158.1 -138.9 161.4 -150.4 150.4C-161.8 139.4 -159.4 114.2 -167.4 96.7C-175.5 79.2 -194.1 69.4 -203.5 54.5C-212.9 39.7 -213.1 19.8 -213.3 0L0 0Z"
      fill="#fce9e9"></path>
    <path d="M0 106.7C-10.1 107.3 -20.3 107.9 -27.6 103C-35 98.2 -39.5 87.8 -48.2 83.4C-56.8 79.1 -69.5 80.7 -75.2 75.2C-80.9 69.7 -79.7 57.1 -83.7 48.3C-87.7 39.6 -97 34.7 -101.7 27.3C-106.4 19.8 -106.6 9.9 -106.7 0L0 0Z" fill="#fde3e3"></path>
  </g>
</svg>
