<svg id="visual" viewBox="0 0 400 800" width="400" height="800" xmlns="http://www.w3.org/2000/svg" xmlns:xlink="http://www.w3.org/1999/xlink" version="1.1"><rect x="0" y="0" width="400" height="800" fill="#fafafa"></rect><defs><linearGradient id="grad1_0" x1="0%" y1="0%" x2="100%" y2="100%"><stop offset="30%" stop-color="#fde3e3" stop-opacity="1"></stop><stop offset="70%" stop-color="#fde3e3" stop-opacity="1"></stop></linearGradient></defs><defs><linearGradient id="grad1_1" x1="0%" y1="0%" x2="100%" y2="100%"><stop offset="30%" stop-color="#fde3e3" stop-opacity="1"></stop><stop offset="70%" stop-color="#fcefee" stop-opacity="1"></stop></linearGradient></defs><defs><linearGradient id="grad1_2" x1="0%" y1="0%" x2="100%" y2="100%"><stop offset="30%" stop-color="#fafafa" stop-opacity="1"></stop><stop offset="70%" stop-color="#fcefee" stop-opacity="1"></stop></linearGradient></defs><defs><linearGradient id="grad2_0" x1="0%" y1="0%" x2="100%" y2="100%"><stop offset="30%" stop-color="#fde3e3" stop-opacity="1"></stop><stop offset="70%" stop-color="#fde3e3" stop-opacity="1"></stop></linearGradient></defs><defs><linearGradient id="grad2_1" x1="0%" y1="0%" x2="100%" y2="100%"><stop offset="30%" stop-color="#fcefee" stop-opacity="1"></stop><stop offset="70%" stop-color="#fde3e3" stop-opacity="1"></stop></linearGradient></defs><defs><linearGradient id="grad2_2" x1="0%" y1="0%" x2="100%" y2="100%"><stop offset="30%" stop-color="#fcefee" stop-opacity="1"></stop><stop offset="70%" stop-color="#fafafa" stop-opacity="1"></stop></linearGradient></defs><g transform="translate(400, 0)"><path d="M0 320C-30.4 321.9 -60.8 323.7 -82.8 309.1C-104.9 294.5 -118.6 263.4 -144.5 250.3C-170.4 237.2 -208.4 242 -225.6 225.6C-242.7 209.1 -239 171.3 -251.1 145C-263.2 118.7 -291.1 104 -305.2 81.8C-319.3 59.5 -319.7 29.8 -320 0L0 0Z" fill="#fbf4f4"></path><path d="M0 213.3C-20.3 214.6 -40.5 215.8 -55.2 206.1C-69.9 196.3 -79.1 175.6 -96.3 166.9C-113.6 158.1 -138.9 161.4 -150.4 150.4C-161.8 139.4 -159.4 114.2 -167.4 96.7C-175.5 79.2 -194.1 69.4 -203.5 54.5C-212.9 39.7 -213.1 19.8 -213.3 0L0 0Z" fill="#fce9e9"></path><path d="M0 106.7C-10.1 107.3 -20.3 107.9 -27.6 103C-35 98.2 -39.5 87.8 -48.2 83.4C-56.8 79.1 -69.5 80.7 -75.2 75.2C-80.9 69.7 -79.7 57.1 -83.7 48.3C-87.7 39.6 -97 34.7 -101.7 27.3C-106.4 19.8 -106.6 9.9 -106.7 0L0 0Z" fill="#fde3e3"></path></g><g transform="translate(0, 800)"><path d="M0 -320C30.1 -322.2 60.3 -324.4 82.8 -309.1C105.4 -293.7 120.3 -260.8 139.5 -241.6C158.7 -222.4 182.3 -216.9 204.4 -204.4C226.4 -191.8 247 -172.1 258.9 -149.5C270.9 -126.9 274.3 -101.2 283 -75.8C291.8 -50.4 305.9 -25.2 320 0L0 0Z" fill="#fbf4f4"></path><path d="M0 -213.3C20.1 -214.8 40.2 -216.3 55.2 -206.1C70.2 -195.8 80.2 -173.9 93 -161.1C105.8 -148.3 121.5 -144.6 136.2 -136.2C150.9 -127.9 164.7 -114.8 172.6 -99.7C180.6 -84.6 182.8 -67.5 188.7 -50.6C194.5 -33.6 203.9 -16.8 213.3 0L0 0Z" fill="#fce9e9"></path><path d="M0 -106.7C10 -107.4 20.1 -108.1 27.6 -103C35.1 -97.9 40.1 -86.9 46.5 -80.5C52.9 -74.1 60.8 -72.3 68.1 -68.1C75.5 -63.9 82.3 -57.4 86.3 -49.8C90.3 -42.3 91.4 -33.7 94.3 -25.3C97.3 -16.8 102 -8.4 106.7 0L0 0Z" fill="#fde3e3"></path></g></svg>